<?xml version="1.0" encoding="UTF-8"?>
<svg id="Calque_1" xmlns="http://www.w3.org/2000/svg" version="1.1" viewBox="0 0 811.9 139.9">
  <!-- Generator: Adobe Illustrator 29.1.0, SVG Export Plug-In . SVG Version: 2.1.0 Build 142)  -->
  <defs>
    <style>
      .st0 {
        isolation: isolate;
      }

      .st1 {
        fill: #fff;
      }
    </style>
  </defs>
  <g class="st0">
    <g class="st0">
      <path class="st1" d="M21.9,124.8c-27.1,0,9,0-18.1,0V19.8h81.1v13.5H22.2v32.2h62.7v13.5H22.2l-.3,45.7Z"/>
      <path class="st1" d="M114.7,124.8h-18.3V19.8h30.3c18.6,0,35.7,5.7,35.7,26.8s-9.6,25-24.7,27.9l24.6,50.2h-18.7l-24.1-49.3h-4.5v49.3ZM126.7,61.2c10,0,17.2-2.2,17.2-13.6s-7.2-13.6-17.2-13.5h-11.8v27.1h11.8Z"/>
      <path class="st1" d="M237.9,100.2c-4,16-3.1,24.1,1.3,25.3,10.5,2.8,15.1-29.1,7.4-29.8-2.4-.3-3.8,0-6.6,3.4l-.6-.6c6.7-9.6,19.9-19.6,25.8-16.2,14.1,8.4-6.8,45.4-27.6,45.4s-18.6-6.6-22.6-14.2l21.9-61.9h-1.6c-15.6,47.2-32.4,78-44.1,78-17.5,0-25.2-13-25.2-24.4,0-35.2,76.6-65.4,77.2-87.4,0-2.7-1-3.5-2.8-3.5-11.5-.1-38.4,40.9-53.5,40.9s-11.1-9.1-11.1-15.9c0-10.5,2.5-20.1,5.1-24.3l.3.5c-5,10.9,2.7,15.8,9.7,15.8,21.1,0,35.8-18.9,51.9-18.9s15.9,6.4,13.3,23.4c-1.9,12.5-14.4,50.1-18.1,64.5ZM238.8,30.2c-24.9,25.9-49,36.9-50.2,64.2-.3,6.8,2.7,11.2,9.1,11.2,20.2,0,32.2-42.4,41.8-74.7l-.8-.8Z"/>
      <path class="st1" d="M324.1,110.1c15.9,0,28.9-7.6,32.7-21.7h17.5c-5.5,23.1-25,37.6-50.2,37.6s-51-21.3-51-53.1,20.2-53.1,51-53.1,46.2,19.3,46.2,47.4h-15.4c-1-21.1-11.4-31.5-30.7-31.5s-35.7,15-35.7,37.2,14.1,37.2,35.7,37.2Z"/>
      <path class="st1" d="M369.7,20h69v13.5h-25.2l.2,91.3h-18.6V33.5h-25.3v-13.5Z"/>
      <path class="st1" d="M462.1,85.9c0,12.8,3.2,22.9,16.3,24.1,19,1.6,32.2-41.5,36.4-86.5l27-20.7.6.9c-14.2,11.8-12.6,48.9-7,81.1l-21.1,22.8h31.6l-13.3,17.1h-43.8l15.1-17.1h8.2l3.6-4.6c2.6-15.9-1.3-29.7-1.3-45.4s0-11.4.2-15.4c-6.6,40.5-23.2,85.5-47.1,85.5s-15.1-13.5-15.1-24.3c0-25.2,14.4-51.7,27-74.5-6.6,7.5-13.5,14.7-20.4,14.7s-10.5-9.3-10.5-16.2c0-10.6,2.4-20.2,4.8-24.6l.3.6c-4.8,10.9,2.5,15.7,9.1,15.7,19.9,0,27.4-7.8,36.3-7.8v.9c-18.6,0-36.9,58.9-36.9,73.8Z"/>
      <path class="st1" d="M571.5,124.8h-18.3V19.8h30.3c18.6,0,35.7,5.7,35.7,26.8s-9.6,25-24.7,27.9l24.6,50.2h-18.7l-24.1-49.3h-4.5l-.2,49.3ZM583.5,61.2c10,0,17.2-2.2,17.2-13.6s-7.2-13.6-17.2-13.5h-11.8v27.1h11.8Z"/>
      <path class="st1" d="M646.5,111.3h63.3v13.5h-81.6V19.8h81.1v13.5h-62.7v32.2h62.7v13.5h-62.7l-.2,32.2Z"/>
      <path class="st1" d="M752.8,11.3l-12.3,8.2c-5.1,4.2-5.2,9-5.2,12.4,0,30.7,73.5,40.5,73.5,71.5s-41.4,36.4-60,36.4-45.3-22.5-28.2-43.3l31.8-16.8,1,1.2c-12,5.7-17.2,13.3-17.2,23.7,0,28.5,56.7,38.7,56.7,10.7s-72.3-31.9-72.3-73.3,23.1-25.6,32.8-32.1c13.9,30.9,35.8,32.8,40,5.7h1.1l-5.9,39c-12.3,0-26.1-2-33.3-12.4-5-7.3-7.5-19.9-2.5-30.9Z"/>
    </g>
  </g>
</svg>